# xmcd CD database file
#
# Track frame offsets:
#	150
#	29424
#	34484
#	59514
#	71000
#	90617
#	115028
#	127070
#	170425
#	190218
#	205722
#	223998
#	247888
#	255694
#	286202
#
# Disc length: 3872 seconds
#
# Revision: 0
# Processed by: cddbd v1.5.2PL0 Copyright (c) Steve Scherf et al.
# Submitted via: CDex 1.51
#
DISCID=e50f1e0f
DTITLE=Silvia Bolognesi - Open Combo
DYEAR=2009
DGENRE=Jazz
TTITLE0=Ernst
TTITLE1=Conduction
TTITLE2=Bottomi per obol
TTITLE3=La fabbrica del blues
TTITLE4=Ansionsa
TTITLE5=Letto grosso
TTITLE6=The unbearable lightness of being Sandro Bondi
TTITLE7=BS4 II BS
TTITLE8=Dima
TTITLE9=Molto rumore per nulla
TTITLE10=NOT The ghost trombone
TTITLE11=What ws I saying
TTITLE12=Almost Kathmandu
TTITLE13=BuuaaH
TTITLE14=Ugly banana
EXTD=YEAR: 2009
EXTT0=
EXTT1=
EXTT2=
EXTT3=
EXTT4=
EXTT5=
EXTT6=
EXTT7=
EXTT8=
EXTT9=
EXTT10=
EXTT11=
EXTT12=
EXTT13=
EXTT14=
PLAYORDER=
